<?xml version="1.0" encoding="UTF-8"?>
<svg width="417px" height="107px" viewBox="0 0 417 107" version="1.1" xmlns="http://www.w3.org/2000/svg" xmlns:xlink="http://www.w3.org/1999/xlink">
    <!-- Generator: Sketch 50.2 (55047) - http://www.bohemiancoding.com/sketch -->
    <title>Tarjetas molonas</title>
    <desc>Created with Sketch.</desc>
    <defs></defs>
    <g id="Tablet+" stroke="none" stroke-width="1" fill="none" fill-rule="evenodd">
        <g id="00---App---Tablet+" transform="translate(-177.000000, -351.000000)">
            <g id="Group-4" transform="translate(175.000000, 348.000000)">
                <g id="Tarjetas-molonas">
                    <g id="Group-2">
                        <g id="Group" transform="translate(63.191223, 54.437060) rotate(-10.000000) translate(-63.191223, -54.437060) translate(7.318166, 11.294573)">
                            <path d="M101.280501,2.28495787 C104.148927,2.28495787 106.587093,3.28890858 108.594991,5.29680673 C110.602889,7.30470487 111.60684,9.74287042 111.60684,12.6112968 L111.60684,74.5693305 C111.60684,77.4377569 110.602889,79.8759224 108.594991,81.8838206 C106.587093,83.8917187 104.148927,84.8956694 101.280501,84.8956694 L11.7855631,84.8956694 C8.91713674,84.8956694 6.47897119,83.8917187 4.47107305,81.8838206 C2.4631749,79.8759224 1.45922419,77.4377569 1.45922419,74.5693305 L1.45922419,12.6112968 C1.45922419,9.74287042 2.4631749,7.30470487 4.47107305,5.29680673 C6.47897119,3.28890858 8.91713674,2.28495787 11.7855631,2.28495787 L101.280501,2.28495787 Z" id="Path" fill="#A2DEAF"></path>
                            <path d="M100.133109,0.646312951 C103.001536,0.646312951 105.439701,1.65026366 107.447599,3.65816181 C109.455497,5.66605996 110.459448,8.10422551 110.459448,10.9726519 L110.459448,72.9306856 C110.459448,75.799112 109.455497,78.2372775 107.447599,80.2451757 C105.439701,82.2530738 103.001536,83.2570245 100.133109,83.2570245 L10.6381716,83.2570245 C7.76974522,83.2570245 5.33157967,82.2530738 3.32368152,80.2451757 C1.31578338,78.2372775 0.311832666,75.799112 0.311832666,72.9306856 L0.311832666,10.9726519 C0.311832666,8.10422551 1.31578338,5.66605996 3.32368152,3.65816181 C5.33157967,1.65026366 7.76974522,0.646312951 10.6381716,0.646312951 L100.133109,0.646312951 Z" id="Path-Copy" fill="#114E4E"></path>
                            <path d="M103.575222,72.9306856 L103.575222,10.9726519 C103.575222,9.96870118 103.252524,9.14402937 102.607128,8.49863319 C101.961732,7.85323701 101.13706,7.53053891 100.133109,7.53053891 L10.6381716,7.53053891 C9.6342209,7.53053891 8.80954909,7.85323701 8.16415291,8.49863319 C7.51875672,9.14402937 7.19605863,9.96870118 7.19605863,10.9726519 L7.19605863,72.9306856 C7.19605863,73.9346363 7.51875672,74.7593081 8.16415291,75.4047043 C8.80954909,76.0501005 9.6342209,76.3727986 10.6381716,76.3727986 L100.133109,76.3727986 C101.13706,76.3727986 101.961732,76.0501005 102.607128,75.4047043 C103.252524,74.7593081 103.575222,73.9346363 103.575222,72.9306856 Z" id="Path" fill="#FFFFFF"></path>
                            <path d="M71.735677,55.7201207 C71.0185713,55.7201207 70.4090282,55.4691322 69.9070545,54.9671584 C69.4050808,54.4651847 69.1540923,53.8556417 69.1540923,53.1385359 L69.1540923,51.4174794 C69.1540923,50.7003737 69.4050808,50.0908306 69.9070545,49.5888569 C70.4090282,49.0868832 71.0185713,48.8358947 71.735677,48.8358947 L94.1094114,48.8358947 C94.8265172,48.8358947 95.4360602,49.0868832 95.9380339,49.5888569 C96.4400077,50.0908306 96.6909962,50.7003737 96.6909962,51.4174794 L96.6909962,53.1385359 C96.6909962,53.8556417 96.4400077,54.4651847 95.9380339,54.9671584 C95.4360602,55.4691322 94.8265172,55.7201207 94.1094114,55.7201207 L71.735677,55.7201207 Z M71.735677,41.9516687 C71.0185713,41.9516687 70.4090282,41.7006802 69.9070545,41.1987065 C69.4050808,40.6967328 69.1540923,40.0871898 69.1540923,39.370084 L69.1540923,37.6490275 C69.1540923,36.9319217 69.4050808,36.3223787 69.9070545,35.820405 C70.4090282,35.3184313 71.0185713,35.0674428 71.735677,35.0674428 L94.1094114,35.0674428 C94.8265172,35.0674428 95.4360602,35.3184313 95.9380339,35.820405 C96.4400077,36.3223787 96.6909962,36.9319217 96.6909962,37.6490275 L96.6909962,39.370084 C96.6909962,40.0871898 96.4400077,40.6967328 95.9380339,41.1987065 C95.4360602,41.7006802 94.8265172,41.9516687 94.1094114,41.9516687 L71.735677,41.9516687 Z M71.735677,28.1832168 C71.0185713,28.1832168 70.4090282,27.9322283 69.9070545,27.4302546 C69.4050808,26.9282809 69.1540923,26.3187378 69.1540923,25.6016321 L69.1540923,23.8805756 C69.1540923,23.1634698 69.4050808,22.5539268 69.9070545,22.0519531 C70.4090282,21.5499793 71.0185713,21.2989908 71.735677,21.2989908 L94.1094114,21.2989908 C94.8265172,21.2989908 95.4360602,21.5499793 95.9380339,22.0519531 C96.4400077,22.5539268 96.6909962,23.1634698 96.6909962,23.8805756 L96.6909962,25.6016321 C96.6909962,26.3187378 96.4400077,26.9282809 95.9380339,27.4302546 C95.4360602,27.9322283 94.8265172,28.1832168 94.1094114,28.1832168 L71.735677,28.1832168 Z" id="Combined-Shape" fill="#E17334"></path>
                            <path d="M51.5132633,42.3819329 C55.2422179,43.5293028 58.1106476,45.7523362 60.1185457,49.0510268 C61.5527606,51.6326115 62.2698663,54.2859058 62.2698663,57.010913 L62.2698663,60.0227619 C62.2698663,62.6043466 61.3376285,64.8273768 59.4731495,66.6918558 C57.6086706,68.5563348 55.3856404,69.4885726 52.8040556,69.4885726 L23.5460953,69.4885726 C20.9645106,69.4885726 18.7414804,68.5563348 16.8770014,66.6918558 C15.0125224,64.8273768 14.0802846,62.6043466 14.0802846,60.0227619 L14.0802846,57.010913 C14.0802846,54.2859058 14.7973904,51.6326115 16.2316052,49.0510268 C18.2395034,45.7523362 21.107933,43.5293028 24.8368877,42.3819329 C22.2553029,39.2266615 20.9645106,35.6411294 20.9645106,31.6253298 C20.9645106,26.8924244 22.6497106,22.8407717 26.020114,19.4703683 C29.3905174,16.0999649 33.4421701,14.4147649 38.1750755,14.4147649 C42.9079808,14.4147649 46.9596335,16.0999649 50.3300369,19.4703683 C53.7004403,22.8407717 55.3856404,26.8924244 55.3856404,31.6253298 C55.3856404,35.6411294 54.094848,39.2266615 51.5132633,42.3819329 Z M38.1750755,21.2989908 C35.3066491,21.2989908 32.8684835,22.3029416 30.8605854,24.3108397 C28.8526872,26.3187378 27.8487365,28.7569034 27.8487365,31.6253298 C27.8487365,34.4937562 28.8526872,36.9319217 30.8605854,38.9398199 C32.8684835,40.947718 35.3066491,41.9516687 38.1750755,41.9516687 C41.0435019,41.9516687 43.4816674,40.947718 45.4895656,38.9398199 C47.4974637,36.9319217 48.5014144,34.4937562 48.5014144,31.6253298 C48.5014144,28.7569034 47.4974637,26.3187378 45.4895656,24.3108397 C43.4816674,22.3029416 41.0435019,21.2989908 38.1750755,21.2989908 Z M55.3856404,60.0227619 L55.3856404,57.010913 C55.3856404,55.1464341 54.8119538,53.461234 53.6645839,51.9553096 C52.517214,50.4493852 51.0112896,49.4095813 49.1468106,48.8358947 L44.6290373,47.5451023 C42.6211392,48.4056306 40.4698185,48.8358947 38.1750755,48.8358947 C35.8803324,48.8358947 33.7290118,48.4056306 31.7211136,47.5451023 L27.2033403,48.8358947 C25.3388614,49.4095813 23.8329369,50.4493852 22.685567,51.9553096 C21.5381971,53.461234 20.9645106,55.1464341 20.9645106,57.010913 L20.9645106,60.0227619 C20.9645106,60.7398677 21.2154991,61.3494107 21.7174728,61.8513844 C22.2194465,62.3533581 22.8289895,62.6043466 23.5460953,62.6043466 L52.8040556,62.6043466 C53.5211614,62.6043466 54.1307044,62.3533581 54.6326782,61.8513844 C55.1346519,61.3494107 55.3856404,60.7398677 55.3856404,60.0227619 Z" id="Combined-Shape" fill="#A2DEAF"></path>
                        </g>
                        <path d="M138.225699,53.3724352 C136.830045,53.3724352 135.60415,53.2592757 134.547979,53.0329534 C133.491808,52.806631 132.577102,52.2596935 131.803834,51.3921244 C131.030566,50.5245552 130.643938,49.1855013 130.643938,47.3749223 C130.643938,44.8476558 131.407764,41.4528711 132.93544,37.1904663 C134.463116,32.9280616 136.471697,28.6468609 138.961244,24.3467358 C137.075224,24.4598969 135.58529,24.7427957 134.491399,25.1954404 C133.397507,25.6480852 132.680831,26.345902 132.341347,27.2889119 C132.492229,27.2889119 132.652538,27.4775111 132.82228,27.854715 C132.992022,28.231919 133.076891,28.6279772 133.076891,29.0429016 C133.076891,29.7218687 132.775133,30.2593763 132.171606,30.6554404 C131.56808,31.0515046 130.813683,31.2495337 129.908394,31.2495337 C128.852223,31.2495337 128.003527,30.966635 127.36228,30.400829 C126.721033,29.8350231 126.400415,29.0240467 126.400415,27.9678756 C126.400415,26.6853822 126.900202,25.5160675 127.899793,24.4598964 C128.899383,23.4037253 130.285587,22.5644591 132.058446,21.9420725 C133.831304,21.319686 135.792735,21.0084974 137.942798,21.0084974 C138.734926,21.0084974 139.715642,21.0650772 140.884974,21.1782383 C143.978047,16.2745869 147.250242,12.2668549 150.701658,9.15492228 C154.153074,6.04298962 157.444129,4.48704663 160.574922,4.48704663 C162.385501,4.48704663 163.875435,4.75108544 165.044767,5.27917098 L156.161658,46.9222798 L148.014093,46.9222798 L152.370777,26.3836269 C150.975123,25.7423802 149.692648,25.2708823 148.523316,24.9691192 C147.353984,24.667356 146.109229,24.4598969 144.789016,24.3467358 C142.638953,28.9863444 140.875551,33.7296131 139.498756,38.5766839 C138.121962,43.4237548 137.433575,47.2994673 137.433575,50.2039378 C137.433575,51.6373129 137.697614,52.6934681 138.225699,53.3724352 Z M156.161658,8.5042487 C154.539681,9.37181781 152.851719,10.9843405 151.09772,13.3418653 C149.343722,15.69939 147.636899,18.5566672 145.977202,21.9137824 C148.693071,22.4418679 150.99398,23.101965 152.88,23.8940933 L156.161658,8.5042487 Z M169.28829,47.2617617 C167.477711,47.2617617 166.016068,46.6959642 164.903316,45.5643523 C163.790564,44.4327405 163.234197,42.7353481 163.234197,40.4721244 C163.234197,39.5291145 163.385076,38.30322 163.686839,36.7944041 L167.534301,18.6321244 L175.681865,18.6321244 L171.608083,37.8694301 C171.494922,38.3220748 171.438342,38.7935727 171.438342,39.2839378 C171.438342,40.9436352 172.004139,41.7734715 173.135751,41.7734715 C174.191922,41.7734715 175.097198,41.3302635 175.851606,40.4438342 C176.606014,39.5574049 177.209531,38.3409404 177.662176,36.7944041 L181.509637,18.6321244 L189.657202,18.6321244 L185.58342,37.8694301 C185.394818,38.8124399 185.300518,39.4913969 185.300518,39.9063212 C185.300518,41.1510943 185.941755,41.7734715 187.224249,41.7734715 C188.959387,41.7734715 190.57191,40.6795964 192.061865,38.4918135 C193.551821,36.3040305 194.749426,33.7013622 195.654715,30.6837306 C196.560005,27.6660989 197.012642,25.0634306 197.012642,22.8756477 C196.937202,23.0642496 196.692023,23.205699 196.277098,23.3 C195.862174,23.394301 195.503836,23.4414508 195.202073,23.4414508 C194.560826,23.4414508 194.061038,23.1396921 193.702694,22.5361658 C193.344351,21.9326395 193.165181,21.2725424 193.165181,20.5558549 C193.165181,19.6505654 193.45751,18.9150287 194.042176,18.3492228 C194.626842,17.7834169 195.503828,17.5005181 196.673161,17.5005181 C197.917934,17.5005181 198.82321,17.9625861 199.389016,18.8867358 C199.954821,19.8108854 200.23772,20.9896301 200.23772,22.4230052 C200.23772,25.8178408 199.653063,29.4483745 198.483731,33.314715 C197.314398,37.1810556 195.522706,40.4721108 193.108601,43.1879793 C190.694496,45.9038478 187.695769,47.2617617 184.112332,47.2617617 C182.264032,47.2617617 180.755239,46.8657034 179.585907,46.0735751 C178.416574,45.2814468 177.662178,44.0932722 177.322694,42.5090155 C175.210352,45.6775288 172.532244,47.2617617 169.28829,47.2617617 Z M209.177409,47.2617617 C206.3861,47.2617617 204.21721,46.5356549 202.670674,45.0834197 C201.124137,43.6311844 200.350881,41.3585647 200.350881,38.2654922 C200.350881,35.6627849 200.860099,32.7960778 201.878549,29.665285 C202.897,26.5344921 204.556672,23.8280943 206.857617,21.5460104 C209.158561,19.2639264 212.081848,18.1229016 215.627565,18.1229016 C219.776808,18.1229016 221.851399,19.9334534 221.851399,23.5546114 C221.851399,25.6669536 221.247882,27.6095248 220.040829,29.3823834 C218.833776,31.155242 217.230684,32.5791656 215.231503,33.6541969 C213.232322,34.7292282 211.101151,35.3421754 208.837927,35.493057 C208.762487,36.6246689 208.724767,37.3790655 208.724767,37.7562694 C208.724767,39.6045688 209.045385,40.8587532 209.686632,41.5188601 C210.327879,42.178967 211.365174,42.5090155 212.798549,42.5090155 C214.835451,42.5090155 216.579993,42.0375177 218.032228,41.0945078 C219.484463,40.1514979 221.078126,38.7181443 222.813264,36.7944041 L224.736995,36.7944041 C220.550031,43.7726774 215.363554,47.2617617 209.177409,47.2617617 Z M209.29057,32.7772021 C210.686225,32.7017613 212.015849,32.2114035 213.279482,31.306114 C214.543115,30.4008245 215.561551,29.2503697 216.334819,27.854715 C217.108087,26.4590604 217.494715,24.987987 217.494715,23.4414508 C217.494715,21.8949145 217.023217,21.121658 216.080207,21.121658 C214.722273,21.121658 213.392649,22.3098327 212.091295,24.6862176 C210.789942,27.0626026 209.856376,29.7595704 209.29057,32.7772021 Z M229.26342,47.2617617 C227.452841,47.2617617 225.925188,46.9128532 224.680415,46.2150259 C223.435641,45.5171986 222.511506,44.6119227 221.907979,43.499171 C221.304453,42.3864193 221.002694,41.2265345 221.002694,40.0194819 C221.002694,38.7747088 221.295023,37.6902637 221.879689,36.766114 C222.464355,35.8419643 223.171602,35.1724373 224.001451,34.757513 C225.472546,32.1170852 226.75502,29.4484073 227.848912,26.751399 C228.942803,24.0543907 229.980099,21.1405338 230.960829,18.0097409 L239.334715,16.8781347 C239.523317,21.7063454 239.843936,26.9305418 240.29658,32.5508808 C240.485182,34.8141046 240.579482,36.4549172 240.579482,37.4733679 C240.579482,38.340937 240.504042,39.0576138 240.353161,39.6234197 C242.126019,38.604969 243.483933,37.6619732 244.426943,36.7944041 L246.803316,36.7944041 C244.389211,39.5857134 241.503644,41.9432028 238.146528,43.866943 C237.052637,45.0362753 235.704153,45.8944014 234.101036,46.4413472 C232.497919,46.9882929 230.885397,47.2617617 229.26342,47.2617617 Z M227.45285,42.7919171 C228.848504,42.7919171 230.017819,42.376999 230.960829,41.5471503 C231.903839,40.7173016 232.375337,39.3782476 232.375337,37.5299482 C232.375337,36.3983363 232.262177,34.8141034 232.035855,32.7772021 C231.658651,28.4770769 231.413472,25.5915099 231.300311,24.1204145 C230.395021,27.1003258 228.867368,30.6648497 226.717306,34.8140933 C227.584875,35.266738 228.018653,35.926835 228.018653,36.7944041 C228.018653,37.5110917 227.782904,38.1523288 227.311399,38.7181347 C226.839894,39.2839407 226.245807,39.5668394 225.529119,39.5668394 C224.736991,39.5668394 224.227773,39.3216605 224.001451,38.8312953 C224.001451,40.1892296 224.27492,41.1888051 224.821865,41.8300518 C225.368811,42.4712985 226.245797,42.7919171 227.45285,42.7919171 Z M252.687668,47.148601 C249.896359,47.148601 247.689749,46.4319243 246.067772,44.9985492 C244.445795,43.5651742 243.634819,41.3019844 243.634819,38.2089119 C243.634819,35.643925 244.162896,32.7960778 245.219067,29.665285 C246.275238,26.5344921 247.972631,23.8280943 250.311295,21.5460104 C252.64996,19.2639264 255.592107,18.1229016 259.137824,18.1229016 C263.966035,18.1229016 266.380104,21.140488 266.380104,27.1757513 L266.380104,27.2323316 C266.493265,27.270052 266.700724,27.2889119 267.002487,27.2889119 C268.24726,27.2889119 269.680614,26.9588634 271.302591,26.2987565 C272.924568,25.6386495 274.395641,24.8371032 275.715855,23.8940933 L276.225078,25.4217617 C275.131186,26.5910939 273.707263,27.5812395 271.953264,28.392228 C270.199266,29.2032165 268.284984,29.7784439 266.210363,30.1179275 C265.9086,33.5504835 265.135343,36.54921 263.89057,39.1141969 C262.645797,41.6791838 261.042704,43.6594749 259.081244,45.0551295 C257.119783,46.4507842 254.988613,47.148601 252.687668,47.148601 Z M254.950881,42.0563731 C255.85617,42.0563731 256.761446,41.5377254 257.666736,40.5004145 C258.572025,39.4631036 259.364142,38.04861 260.043109,36.2568912 C260.722076,34.4651724 261.212434,32.4754514 261.514197,30.2876684 C260.495746,30.061346 259.986528,29.2692296 259.986528,27.9112953 C259.986528,26.3647591 260.571186,25.3463237 261.740518,24.8559585 C261.665077,23.6111855 261.476478,22.7530594 261.174715,22.2815544 C260.872952,21.8100495 260.344874,21.5743005 259.590466,21.5743005 C258.345693,21.5743005 257.138659,22.4795764 255.969326,24.2901554 C254.799994,26.1007344 253.856998,28.2696247 253.140311,30.7968912 C252.423623,33.3241577 252.065285,35.5496277 252.065285,37.4733679 C252.065285,39.2839469 252.272744,40.5004114 252.687668,41.1227979 C253.102593,41.7451845 253.856989,42.0563731 254.950881,42.0563731 Z M303.666528,47.2617617 C301.365584,47.2617617 299.677622,46.6488144 298.602591,45.4229016 C297.527559,44.1969887 296.990052,42.6787655 296.990052,40.8681865 C296.990052,40.0760582 297.084351,39.1802123 297.272953,38.1806218 C297.461555,37.1810313 297.659584,36.2097456 297.867047,35.2667358 C298.074509,34.3237259 298.215958,33.7202086 298.291399,33.4561658 C298.593162,32.1359519 298.876061,30.8346178 299.140104,29.5521244 C299.404146,28.2696309 299.536166,27.2323356 299.536166,26.4402073 C299.536166,24.5164671 298.857209,23.5546114 297.499275,23.5546114 C296.518544,23.5546114 295.650988,24.0355392 294.89658,24.9974093 C294.142172,25.9592794 293.538655,27.2134638 293.08601,28.76 L289.238549,46.9222798 L281.090984,46.9222798 L285.221347,27.4020725 C285.334508,26.9494278 285.391088,26.4779299 285.391088,25.9875648 C285.391088,24.3278673 284.825291,23.4980311 283.693679,23.4980311 C282.637508,23.4980311 281.722802,23.9789589 280.949534,24.940829 C280.176266,25.9026991 279.563318,27.1757434 279.110674,28.76 L275.263212,46.9222798 L267.115648,46.9222798 L273.113161,18.6321244 L281.260725,18.6321244 L280.638342,21.5743005 C282.562082,19.424238 284.862992,18.3492228 287.54114,18.3492228 C290.860535,18.3492228 292.803106,19.9711755 293.368912,23.2151295 C295.443534,20.0088959 298.065062,18.4058031 301.233575,18.4058031 C303.157315,18.4058031 304.684968,18.9338807 305.81658,19.9900518 C306.948192,21.0462229 307.51399,22.6493157 307.51399,24.7993782 C307.51399,25.8932697 307.38197,27.1097342 307.117927,28.4488083 C306.853885,29.7878823 306.476686,31.419265 305.986321,33.3430052 C305.684558,34.5123375 305.411089,35.6533623 305.165907,36.766114 C304.920724,37.8788657 304.798135,38.7558517 304.798135,39.3970984 C304.798135,40.1515064 304.967874,40.7361637 305.307358,41.1510881 C305.646841,41.5660124 306.231498,41.7734715 307.061347,41.7734715 C308.192959,41.7734715 309.098235,41.3679833 309.777202,40.5569948 C310.456169,39.7460063 311.135126,38.491822 311.814093,36.7944041 L314.190466,36.7944041 C312.794812,40.9436477 311.182289,43.7254852 309.35285,45.14 C307.523411,46.5545148 305.627989,47.2617617 303.666528,47.2617617 Z M319.791917,47.2617617 C317.038328,47.2617617 314.888298,46.5356549 313.341762,45.0834197 C311.795225,43.6311844 311.021969,41.3585647 311.021969,38.2654922 C311.021969,35.6627849 311.531187,32.7960778 312.549637,29.665285 C313.568088,26.5344921 315.227761,23.8280943 317.528705,21.5460104 C319.829649,19.2639264 322.752936,18.1229016 326.298653,18.1229016 C330.447896,18.1229016 332.522487,19.9334534 332.522487,23.5546114 C332.522487,25.6669536 331.91897,27.6095248 330.711917,29.3823834 C329.504864,31.155242 327.901772,32.5791656 325.902591,33.6541969 C323.90341,34.7292282 321.772239,35.3421754 319.509016,35.493057 C319.433575,36.3229057 319.395855,36.8887032 319.395855,37.1904663 C319.395855,40.3212592 320.56517,41.8866321 322.903834,41.8866321 C323.960005,41.8866321 325.0916,41.6037334 326.298653,41.0379275 C327.505706,40.4721215 328.599581,39.7554448 329.580311,38.8878756 C328.56186,44.4704942 325.299095,47.2617617 319.791917,47.2617617 Z M319.905078,32.7772021 C321.338453,32.7394817 322.686937,32.2679838 323.95057,31.3626943 C325.214203,30.4574048 326.232639,29.29752 327.005907,27.8830052 C327.779175,26.4684903 328.165803,24.987987 328.165803,23.4414508 C328.165803,21.8949145 327.694305,21.121658 326.751295,21.121658 C325.431081,21.121658 324.120317,22.3192626 322.818964,24.7145078 C321.51761,27.1097529 320.546324,29.7972908 319.905078,32.7772021 Z" id="Awesome" fill="#A2DEAF"></path>
                        <path d="M147.165389,64.6319171 L155.312953,64.6319171 L154.407668,68.8754404 C156.293688,67.2534634 158.500298,66.442487 161.027565,66.442487 C163.139907,66.442487 164.818439,67.1403039 166.063212,68.5359585 C167.307985,69.9316132 167.930363,72.2136629 167.930363,75.3821762 C167.930363,78.3620874 167.496585,81.3702439 166.629016,84.4067358 C165.761446,87.4432276 164.290373,90.027036 162.215751,92.1582383 C160.14113,94.2894407 157.406442,95.3550259 154.011606,95.3550259 C151.597501,95.3550259 149.994408,94.676069 149.20228,93.3181347 L146.260104,107.123731 L137.716477,109.160622 L147.165389,64.6319171 Z M152.257617,90.4325389 C154.068196,90.4325389 155.567559,89.5838427 156.755751,87.8864249 C157.943944,86.1890071 158.8115,84.1615662 159.358446,81.8040415 C159.905391,79.4465167 160.17886,77.2493366 160.17886,75.2124352 C160.17886,72.0816424 159.235864,70.5162694 157.349845,70.5162694 C156.670877,70.5162694 155.982491,70.7614483 155.284663,71.2518135 C154.586836,71.7421786 153.973889,72.4211356 153.445803,73.2887047 L150.107565,89.1311917 C150.409328,89.9987608 151.126005,90.4325389 152.257617,90.4325389 Z M173.192332,66.7253886 L181.339896,66.7253886 L180.604352,70.2333679 C181.886846,69.101756 183.046731,68.2341999 184.084041,67.6306736 C185.121352,67.0271472 186.243517,66.7253886 187.45057,66.7253886 C188.657623,66.7253886 189.610048,67.1403067 190.307876,67.9701554 C191.005703,68.8000041 191.354611,69.7995796 191.354611,70.9689119 C191.354611,72.0628034 190.996273,73.0246591 190.279585,73.8545078 C189.562898,74.6843565 188.563322,75.0992746 187.280829,75.0992746 C186.45098,75.0992746 185.894613,74.9012455 185.61171,74.5051813 C185.328807,74.1091172 185.111918,73.5338898 184.961036,72.7794819 C184.847875,72.2891167 184.734716,71.9307783 184.621554,71.704456 C184.508393,71.4781336 184.300934,71.3649741 183.999171,71.3649741 C183.207043,71.3649741 182.537516,71.5252834 181.99057,71.8459067 C181.443624,72.1665301 180.736377,72.7228976 179.868808,73.5150259 L175.342383,95.015544 L167.194819,95.015544 L173.192332,66.7253886 Z M198.879793,95.2418653 C196.088483,95.2418653 193.881873,94.5251885 192.259896,93.0918135 C190.637919,91.6584384 189.826943,89.3952486 189.826943,86.3021762 C189.826943,83.7371892 190.355021,80.8893421 191.411192,77.7585492 C192.467363,74.6277564 194.164755,71.9213586 196.50342,69.6392746 C198.842084,67.3571907 201.784231,66.2161658 205.329948,66.2161658 C210.158159,66.2161658 212.572228,69.2337522 212.572228,75.2690155 L212.572228,75.3255959 C212.685389,75.3633163 212.892848,75.3821762 213.194611,75.3821762 C214.439384,75.3821762 215.872738,75.0521277 217.494715,74.3920207 C219.116692,73.7319138 220.587765,72.9303674 221.907979,71.9873575 L222.417202,73.5150259 C221.323311,74.6843582 219.899387,75.6745037 218.145389,76.4854922 C216.39139,77.2964807 214.477109,77.8717081 212.402487,78.2111917 C212.100724,81.6437477 211.327467,84.6424742 210.082694,87.2074611 C208.837921,89.7724481 207.234828,91.7527391 205.273368,93.1483938 C203.311907,94.5440484 201.180737,95.2418653 198.879793,95.2418653 Z M201.143005,90.1496373 C202.048295,90.1496373 202.953571,89.6309896 203.85886,88.5936788 C204.76415,87.5563679 205.556266,86.1418742 206.235233,84.3501554 C206.9142,82.5584366 207.404558,80.5687156 207.706321,78.3809326 C206.687871,78.1546103 206.178653,77.3624938 206.178653,76.0045596 C206.178653,74.4580234 206.76331,73.4395879 207.932642,72.9492228 C207.857202,71.7044497 207.668603,70.8463236 207.366839,70.3748187 C207.065076,69.9033137 206.536999,69.6675648 205.782591,69.6675648 C204.537818,69.6675648 203.330783,70.5728407 202.161451,72.3834197 C200.992119,74.1939987 200.049123,76.3628889 199.332435,78.8901554 C198.615748,81.417422 198.257409,83.6428919 198.257409,85.5666321 C198.257409,87.3772111 198.464868,88.5936756 198.879793,89.2160622 C199.294717,89.8384487 200.049114,90.1496373 201.143005,90.1496373 Z M210.761658,109.160622 C208.687036,109.160622 206.999074,108.585394 205.69772,107.434922 C204.396367,106.28445 203.745699,104.747367 203.745699,102.823627 C203.745699,101.23937 204.198337,99.9380362 205.103627,98.9195855 C206.008916,97.9011348 207.121651,97.0901585 208.441865,96.4866321 C209.762079,95.8831058 211.459471,95.2418687 213.534093,94.5629016 L219.814508,64.801658 C220.832958,60.1243289 222.530351,56.9275733 224.906736,55.2112953 C227.283121,53.4950173 229.998948,52.6368912 233.054301,52.6368912 C235.88333,52.6368912 238.278539,53.1083891 240.24,54.051399 C242.201461,54.9944089 243.182176,56.6918012 243.182176,59.1436269 C243.182176,60.7278836 242.757828,61.8877683 241.909119,62.6233161 C241.06041,63.3588638 239.994825,63.7266321 238.712332,63.7266321 C237.731601,63.7266321 236.920625,63.4908832 236.279378,63.0193782 C235.638132,62.5478733 235.317513,61.7651868 235.317513,60.6712953 C235.317513,59.9546078 235.496682,59.3133707 235.855026,58.7475648 C236.21337,58.1817588 236.675438,57.8988601 237.241244,57.8988601 C237.505286,57.8988601 237.656166,57.91772 237.693886,57.9554404 C237.656166,57.2010325 237.363837,56.635235 236.816891,56.2580311 C236.269945,55.8808271 235.524979,55.692228 234.581969,55.692228 C232.922271,55.692228 231.592647,56.2957453 230.593057,57.5027979 C229.593467,58.7098506 228.92394,60.2375037 228.584456,62.0858031 L227.622591,66.7253886 L232.149016,66.7253886 L231.696373,68.988601 L227.169948,68.988601 L220.719793,99.5419689 C219.965385,103.087686 218.664051,105.577195 216.815751,107.01057 C214.967452,108.443945 212.949441,109.160622 210.761658,109.160622 Z M236.166218,95.3550259 C234.355639,95.3550259 232.893995,94.7892285 231.781244,93.6576166 C230.668492,92.5260047 230.112124,90.8286124 230.112124,88.5653886 C230.112124,87.6223787 230.263004,86.3964842 230.564767,84.8876684 L234.412228,66.7253886 L242.559793,66.7253886 L238.48601,85.9626943 C238.335129,86.5285002 238.259689,87.1320175 238.259689,87.7732642 C238.259689,88.5276722 238.438858,89.0651797 238.797202,89.3858031 C239.155546,89.7064265 239.749633,89.8667358 240.579482,89.8667358 C241.673373,89.8667358 242.691809,89.4046678 243.634819,88.4805181 C244.577829,87.5563684 245.256785,86.3587638 245.67171,84.8876684 L248.048083,84.8876684 C246.652428,88.9614711 244.860736,91.7244487 242.672953,93.1766839 C240.48517,94.6289192 238.31628,95.3550259 236.166218,95.3550259 Z M209.177409,104.124974 C209.818656,104.124974 210.450463,103.766636 211.07285,103.049948 C211.695236,102.333261 212.157304,101.220526 212.459067,99.7117098 L213.138031,96.4300518 C211.214291,97.0335781 209.686638,97.7974047 208.555026,98.7215544 C207.423414,99.6457041 206.857617,100.692429 206.857617,101.861762 C206.857617,102.69161 207.121655,103.276268 207.649741,103.615751 C208.177826,103.955235 208.687044,104.124974 209.177409,104.124974 Z M251.273161,95.3550259 C249.462582,95.3550259 248.000938,94.7892285 246.888187,93.6576166 C245.775435,92.5260047 245.219067,90.8286124 245.219067,88.5653886 C245.219067,87.6223787 245.369947,86.3964842 245.67171,84.8876684 L251.725803,56.5409326 L260.099689,55.4093264 L253.592953,85.9626943 C253.442072,86.5285002 253.366632,87.1320175 253.366632,87.7732642 C253.366632,88.5276722 253.545801,89.0651797 253.904145,89.3858031 C254.262489,89.7064265 254.856576,89.8667358 255.686425,89.8667358 C256.780316,89.8667358 257.798752,89.4046678 258.741762,88.4805181 C259.684772,87.5563684 260.363728,86.3587638 260.778653,84.8876684 L263.155026,84.8876684 C261.759371,88.9614711 259.967679,91.7244487 257.779896,93.1766839 C255.592113,94.6289192 253.423223,95.3550259 251.273161,95.3550259 Z M268.756477,95.3550259 C266.002888,95.3550259 263.852857,94.6289192 262.306321,93.1766839 C260.759785,91.7244487 259.986528,89.4518289 259.986528,86.3587565 C259.986528,83.7560492 260.495746,80.8893421 261.514197,77.7585492 C262.532648,74.6277564 264.19232,71.9213586 266.493264,69.6392746 C268.794208,67.3571907 271.717495,66.2161658 275.263212,66.2161658 C279.412456,66.2161658 281.487047,68.0267176 281.487047,71.6478756 C281.487047,73.7602178 280.883529,75.7027891 279.676477,77.4756477 C278.469424,79.2485063 276.866331,80.6724299 274.86715,81.7474611 C272.867969,82.8224924 270.736799,83.4354397 268.473575,83.5863212 C268.398134,84.41617 268.360415,84.9819674 268.360415,85.2837306 C268.360415,88.4145234 269.529729,89.9798964 271.868394,89.9798964 C272.924565,89.9798964 274.05616,89.6969976 275.263212,89.1311917 C276.470265,88.5653858 277.56414,87.848709 278.54487,86.9811399 C277.52642,92.5637585 274.263654,95.3550259 268.756477,95.3550259 Z M268.869637,80.8704663 C270.303012,80.8327459 271.651496,80.361248 272.91513,79.4559585 C274.178763,78.550669 275.197198,77.3907843 275.970466,75.9762694 C276.743734,74.5617546 277.130363,73.0812513 277.130363,71.534715 C277.130363,69.9881788 276.658865,69.2149223 275.715855,69.2149223 C274.395641,69.2149223 273.084877,70.4125269 271.783523,72.807772 C270.48217,75.2030172 269.510884,77.890555 268.869637,80.8704663 Z M283.580518,77.9848705 L294.89658,77.9848705 L293.934715,82.454715 L282.562073,82.454715 L283.580518,77.9848705 Z M305.986321,95.3550259 C303.195012,95.3550259 301.026122,94.6289192 299.479585,93.1766839 C297.933049,91.7244487 297.159793,89.4518289 297.159793,86.3587565 C297.159793,83.7560492 297.67844,80.8893421 298.715751,77.7585492 C299.753062,74.6277564 301.412735,71.9213586 303.694819,69.6392746 C305.976903,67.3571907 308.8719,66.2161658 312.379896,66.2161658 C314.64312,66.2161658 316.255643,66.7065236 317.217513,67.6872539 C318.179383,68.6679842 318.660311,69.9127386 318.660311,71.4215544 C318.660311,72.7417683 318.377412,73.7602037 317.811606,74.4768912 C317.2458,75.1935787 316.529124,75.5519171 315.661554,75.5519171 C315.020308,75.5519171 314.360211,75.3255981 313.681244,74.8729534 C314.133888,73.6281803 314.360207,72.5154453 314.360207,71.534715 C314.360207,70.8180275 314.228188,70.2522301 313.964145,69.8373057 C313.700102,69.4223813 313.304044,69.2149223 312.775959,69.2149223 C311.644347,69.2149223 310.512752,70.1390581 309.38114,71.9873575 C308.249528,73.8356569 307.325392,76.0799868 306.608705,78.7204145 C305.892017,81.3608422 305.533679,83.7371915 305.533679,85.8495337 C305.533679,87.6978331 305.854297,88.9520174 306.495544,89.6121244 C307.136791,90.2722313 308.174086,90.6022798 309.607461,90.6022798 C311.644363,90.6022798 313.388905,90.1307819 314.84114,89.187772 C316.293375,88.2447621 317.887038,86.8114086 319.622176,84.8876684 L321.545907,84.8876684 C317.358943,91.8659416 312.172466,95.3550259 305.986321,95.3550259 Z M326.411813,95.3550259 C324.261751,95.3550259 322.470059,94.6194892 321.036684,93.1483938 C319.603309,91.6772983 318.886632,89.3763887 318.886632,86.2455959 C318.886632,83.4542866 319.443,80.5215698 320.555751,77.4473575 C321.668503,74.3731453 323.328175,71.770477 325.534819,69.6392746 C327.741462,67.5080722 330.37242,66.442487 333.427772,66.442487 C334.974308,66.442487 336.124763,66.7065259 336.879171,67.2346114 C337.633579,67.7626969 338.010777,68.4605138 338.010777,69.3280829 L338.010777,69.7241451 L338.633161,66.7253886 L346.780725,66.7253886 L342.706943,85.9626943 C342.556061,86.5285002 342.480622,87.1320175 342.480622,87.7732642 C342.480622,89.3952413 343.253878,90.2062176 344.800415,90.2062176 C345.856586,90.2062176 346.771291,89.7158598 347.54456,88.7351295 C348.317828,87.7543992 348.930775,86.471925 349.38342,84.8876684 L351.759793,84.8876684 C350.364138,88.9614711 348.638456,91.7244487 346.582694,93.1766839 C344.526933,94.6289192 342.461772,95.3550259 340.38715,95.3550259 C338.802894,95.3550259 337.529849,94.9118179 336.567979,94.0253886 C335.606109,93.1389593 335.030882,91.8470551 334.84228,90.1496373 C333.748388,91.6961735 332.531924,92.9503579 331.19285,93.912228 C329.853776,94.8740981 328.260113,95.3550259 326.411813,95.3550259 Z M330.089534,89.8667358 C331.032544,89.8667358 331.966109,89.4235277 332.890259,88.5370984 C333.814409,87.6506691 334.446216,86.4342046 334.785699,84.8876684 L337.501554,72.1005181 C337.501554,71.610153 337.312955,71.1292252 336.935751,70.6577202 C336.558547,70.1862153 335.97389,69.9504663 335.181762,69.9504663 C333.672946,69.9504663 332.315032,70.8274524 331.107979,72.5814508 C329.900927,74.3354492 328.957931,76.4477597 328.278964,78.9184456 C327.599997,81.3891315 327.260518,83.5674517 327.260518,85.4534715 C327.260518,87.3394913 327.533987,88.5465259 328.080933,89.0746114 C328.627878,89.6026969 329.297405,89.8667358 330.089534,89.8667358 Z M353.230881,66.7253886 L361.378446,66.7253886 L360.642902,70.2333679 C361.925395,69.101756 363.08528,68.2341999 364.122591,67.6306736 C365.159902,67.0271472 366.282067,66.7253886 367.489119,66.7253886 C368.696172,66.7253886 369.648598,67.1403067 370.346425,67.9701554 C371.044252,68.8000041 371.393161,69.7995796 371.393161,70.9689119 C371.393161,72.0628034 371.034822,73.0246591 370.318135,73.8545078 C369.601447,74.6843565 368.601872,75.0992746 367.319378,75.0992746 C366.48953,75.0992746 365.933162,74.9012455 365.650259,74.5051813 C365.367356,74.1091172 365.150467,73.5338898 364.999585,72.7794819 C364.886424,72.2891167 364.773265,71.9307783 364.660104,71.704456 C364.546942,71.4781336 364.339483,71.3649741 364.03772,71.3649741 C363.245592,71.3649741 362.576065,71.5252834 362.029119,71.8459067 C361.482173,72.1665301 360.774927,72.7228976 359.907358,73.5150259 L355.380933,95.015544 L347.233368,95.015544 L353.230881,66.7253886 Z M377.447254,95.3550259 C375.297191,95.3550259 373.505499,94.6194892 372.072124,93.1483938 C370.638749,91.6772983 369.922073,89.3763887 369.922073,86.2455959 C369.922073,83.4542866 370.47844,80.5215698 371.591192,77.4473575 C372.703943,74.3731453 374.363616,71.770477 376.570259,69.6392746 C378.776902,67.5080722 381.40786,66.442487 384.463212,66.442487 C386.009749,66.442487 387.160203,66.7065259 387.914611,67.2346114 C388.669019,67.7626969 389.046218,68.4605138 389.046218,69.3280829 L389.046218,69.5544041 L391.818653,56.5409326 L400.192539,55.4093264 L393.685803,85.9626943 C393.534922,86.5285002 393.459482,87.1320175 393.459482,87.7732642 C393.459482,88.5276722 393.638651,89.0651797 393.996995,89.3858031 C394.355339,89.7064265 394.949426,89.8667358 395.779275,89.8667358 C396.835446,89.8667358 397.750152,89.4140978 398.52342,88.5088083 C399.296688,87.6035188 399.909635,86.3964842 400.36228,84.8876684 L402.738653,84.8876684 C400.437709,91.6396193 396.646866,95.015544 391.36601,95.015544 C389.819474,95.015544 388.56529,94.6006259 387.60342,93.7707772 C386.64155,92.9409285 386.047462,91.7338939 385.82114,90.1496373 C384.84041,91.6584531 383.661665,92.9032075 382.28487,93.8839378 C380.908076,94.8646681 379.295553,95.3550259 377.447254,95.3550259 Z M381.124974,89.8667358 C382.030264,89.8667358 382.944969,89.4518176 383.869119,88.6219689 C384.793269,87.7921202 385.425076,86.6416654 385.76456,85.1705699 L385.76456,84.8876684 L388.536995,71.9307772 C388.197511,70.6105633 387.424255,69.9504663 386.217202,69.9504663 C384.708386,69.9504663 383.350472,70.8274524 382.14342,72.5814508 C380.936367,74.3354492 379.993371,76.4477597 379.314404,78.9184456 C378.635437,81.3891315 378.295959,83.5674517 378.295959,85.4534715 C378.295959,87.3394913 378.569427,88.5465259 379.116373,89.0746114 C379.663319,89.6026969 380.332846,89.8667358 381.124974,89.8667358 Z M406.812435,95.3550259 C405.001856,95.3550259 403.474203,95.0061175 402.22943,94.3082902 C400.984657,93.6104628 400.060521,92.7051869 399.456995,91.5924352 C398.853468,90.4796836 398.55171,89.3197988 398.55171,88.1127461 C398.55171,86.8679731 398.844039,85.7835279 399.428705,84.8593782 C400.013371,83.9352285 400.720618,83.2657016 401.550466,82.8507772 C403.021562,80.2103495 404.304036,77.5416715 405.397927,74.8446632 C406.491819,72.1476549 407.529114,69.233798 408.509845,66.1030052 L416.883731,64.971399 C417.072333,69.7996096 417.392951,75.0238061 417.845596,80.6441451 C418.034198,82.9073688 418.128497,84.5481814 418.128497,85.5666321 C418.128497,87.8675763 417.54384,89.7535678 416.374508,91.2246632 C415.205176,92.6957587 413.762392,93.7519139 412.046114,94.3931606 C410.329836,95.0344074 408.585294,95.3550259 406.812435,95.3550259 Z M405.001865,90.8851813 C406.39752,90.8851813 407.566835,90.4702632 408.509845,89.6404145 C409.452854,88.8105658 409.924352,87.4715118 409.924352,85.6232124 C409.924352,84.4916006 409.811193,82.9073677 409.58487,80.8704663 C409.207667,76.5703412 408.962488,73.6847742 408.849326,72.2136788 C407.944037,75.19359 406.416384,78.758114 404.266321,82.9073575 C405.13389,83.3600023 405.567668,84.0200993 405.567668,84.8876684 C405.567668,85.6043559 405.331919,86.245593 404.860415,86.811399 C404.38891,87.3772049 403.794822,87.6601036 403.078135,87.6601036 C402.286006,87.6601036 401.776789,87.4149247 401.550466,86.9245596 C401.550466,88.2824938 401.823935,89.2820693 402.370881,89.9233161 C402.917827,90.5645628 403.794813,90.8851813 405.001865,90.8851813 Z" id="profile-cards" fill="#A2DEAF"></path>
                        <path d="M136.811192,51.9579275 C135.415537,51.9579275 134.189643,51.844768 133.133472,51.6184456 C132.0773,51.3921232 131.162595,50.8451857 130.389326,49.9776166 C129.616058,49.1100475 129.22943,47.7709935 129.22943,45.9604145 C129.22943,43.433148 129.993257,40.0383633 131.520933,35.7759585 C133.048609,31.5135538 135.05719,27.2323531 137.546736,22.932228 C135.660716,23.0453892 134.170783,23.3282879 133.076891,23.7809326 C131.983,24.2335774 131.266323,24.9313942 130.926839,25.8744041 C131.077721,25.8744041 131.23803,26.0630033 131.407772,26.4402073 C131.577514,26.8174112 131.662383,27.2134694 131.662383,27.6283938 C131.662383,28.3073609 131.360625,28.8448685 130.757098,29.2409326 C130.153572,29.6369968 129.399176,29.8350259 128.493886,29.8350259 C127.437715,29.8350259 126.589019,29.5521272 125.947772,28.9863212 C125.306525,28.4205153 124.985907,27.609539 124.985907,26.5533679 C124.985907,25.2708744 125.485694,24.1015597 126.485285,23.0453886 C127.484875,21.9892175 128.871079,21.1499513 130.643938,20.5275648 C132.416796,19.9051782 134.378228,19.5939896 136.52829,19.5939896 C137.320418,19.5939896 138.301134,19.6505694 139.470466,19.7637306 C142.563539,14.8600791 145.835734,10.8523472 149.28715,7.74041451 C152.738566,4.62848185 156.029622,3.07253886 159.160415,3.07253886 C160.970994,3.07253886 162.460927,3.33657767 163.630259,3.86466321 L154.74715,45.507772 L146.599585,45.507772 L150.956269,24.9691192 C149.560615,24.3278724 148.278141,23.8563746 147.108808,23.5546114 C145.939476,23.2528482 144.694722,23.0453892 143.374508,22.932228 C141.224445,27.5718367 139.461043,32.3151053 138.084249,37.1621762 C136.707454,42.009247 136.019067,45.8849596 136.019067,48.7894301 C136.019067,50.2228051 136.283106,51.2789603 136.811192,51.9579275 Z M154.74715,7.08974093 C153.125173,7.95731004 151.437211,9.56983277 149.683212,11.9273575 C147.929214,14.2848823 146.222392,17.1421594 144.562694,20.4992746 C147.278563,21.0273602 149.579472,21.6874572 151.465492,22.4795855 L154.74715,7.08974093 Z M167.873782,45.8472539 C166.063203,45.8472539 164.60156,45.2814564 163.488808,44.1498446 C162.376057,43.0182327 161.819689,41.3208403 161.819689,39.0576166 C161.819689,38.1146067 161.970568,36.8887122 162.272332,35.3798964 L166.119793,17.2176166 L174.267358,17.2176166 L170.193575,36.4549223 C170.080414,36.907567 170.023834,37.3790649 170.023834,37.8694301 C170.023834,39.5291275 170.589632,40.3589637 171.721244,40.3589637 C172.777415,40.3589637 173.682691,39.9157557 174.437098,39.0293264 C175.191506,38.1428971 175.795024,36.9264326 176.247668,35.3798964 L180.09513,17.2176166 L188.242694,17.2176166 L184.168912,36.4549223 C183.98031,37.3979322 183.88601,38.0768891 183.88601,38.4918135 C183.88601,39.7365865 184.527247,40.3589637 185.809741,40.3589637 C187.544879,40.3589637 189.157402,39.2650887 190.647358,37.0773057 C192.137313,34.8895227 193.334918,32.2868545 194.240207,29.2692228 C195.145497,26.2515911 195.598135,23.6489229 195.598135,21.4611399 C195.522694,21.6497419 195.277515,21.7911912 194.862591,21.8854922 C194.447666,21.9797932 194.089328,22.026943 193.787565,22.026943 C193.146318,22.026943 192.64653,21.7251844 192.288187,21.121658 C191.929843,20.5181317 191.750674,19.8580347 191.750674,19.1413472 C191.750674,18.2360576 192.043002,17.500521 192.627668,16.934715 C193.212335,16.3689091 194.089321,16.0860104 195.258653,16.0860104 C196.503426,16.0860104 197.408702,16.5480783 197.974508,17.472228 C198.540314,18.3963777 198.823212,19.5751224 198.823212,21.0084974 C198.823212,24.403333 198.238555,28.0338667 197.069223,31.9002073 C195.899891,35.7665478 194.108199,39.057603 191.694093,41.7734715 C189.279988,44.48934 186.281261,45.8472539 182.697824,45.8472539 C180.849524,45.8472539 179.340731,45.4511957 178.171399,44.6590674 C177.002067,43.866939 176.24767,42.6787644 175.908187,41.0945078 C173.795844,44.263021 171.117736,45.8472539 167.873782,45.8472539 Z M207.762902,45.8472539 C204.971592,45.8472539 202.802702,45.1211472 201.256166,43.6689119 C199.70963,42.2166767 198.936373,39.9440569 198.936373,36.8509845 C198.936373,34.2482771 199.445591,31.3815701 200.464041,28.2507772 C201.482492,25.1199843 203.142165,22.4135865 205.443109,20.1315026 C207.744053,17.8494186 210.66734,16.7083938 214.213057,16.7083938 C218.362301,16.7083938 220.436891,18.5189456 220.436891,22.1401036 C220.436891,24.2524458 219.833374,26.195017 218.626321,27.9678756 C217.419269,29.7407343 215.816176,31.1646578 213.816995,32.2396891 C211.817814,33.3147204 209.686643,33.9276676 207.42342,34.0785492 C207.347979,35.2101611 207.310259,35.9645577 207.310259,36.3417617 C207.310259,38.1900611 207.630878,39.4442454 208.272124,40.1043523 C208.913371,40.7644593 209.950666,41.0945078 211.384041,41.0945078 C213.420943,41.0945078 215.165485,40.6230099 216.61772,39.68 C218.069955,38.7369901 219.663618,37.3036366 221.398756,35.3798964 L223.322487,35.3798964 C219.135523,42.3581696 213.949046,45.8472539 207.762902,45.8472539 Z M207.876062,31.3626943 C209.271717,31.2872535 210.601341,30.7968957 211.864974,29.8916062 C213.128607,28.9863167 214.147043,27.8358619 214.920311,26.4402073 C215.693579,25.0445526 216.080207,23.5734792 216.080207,22.026943 C216.080207,20.4804068 215.608709,19.7071503 214.665699,19.7071503 C213.307765,19.7071503 211.978141,20.8953249 210.676788,23.2717098 C209.375434,25.6480948 208.441868,28.3450626 207.876062,31.3626943 Z M227.848912,45.8472539 C226.038333,45.8472539 224.51068,45.4983455 223.265907,44.8005181 C222.021134,44.1026908 221.096998,43.1974149 220.493472,42.0846632 C219.889945,40.9719115 219.588187,39.8120268 219.588187,38.6049741 C219.588187,37.360201 219.880515,36.2757559 220.465181,35.3516062 C221.049847,34.4274565 221.757094,33.7579295 222.586943,33.3430052 C224.058038,30.7025775 225.340513,28.0338995 226.434404,25.3368912 C227.528296,22.6398829 228.565591,19.726026 229.546321,16.5952332 L237.920207,15.4636269 C238.108809,20.2918376 238.429428,25.5160341 238.882073,31.1363731 C239.070675,33.3995968 239.164974,35.0404094 239.164974,36.0588601 C239.164974,36.9264292 239.089534,37.643106 238.938653,38.2089119 C240.711511,37.1904612 242.069425,36.2474655 243.012435,35.3798964 L245.388808,35.3798964 C242.974703,38.1712057 240.089136,40.528695 236.732021,42.4524352 C235.638129,43.6217675 234.289645,44.4798936 232.686528,45.0268394 C231.083412,45.5737851 229.470889,45.8472539 227.848912,45.8472539 Z M226.038342,41.3774093 C227.433997,41.3774093 228.603311,40.9624912 229.546321,40.1326425 C230.489331,39.3027938 230.960829,37.9637398 230.960829,36.1154404 C230.960829,34.9838285 230.84767,33.3995957 230.621347,31.3626943 C230.244143,27.0625692 229.998964,24.1770022 229.885803,22.7059067 C228.980514,25.685818 227.45286,29.2503419 225.302798,33.3995855 C226.170367,33.8522302 226.604145,34.5123273 226.604145,35.3798964 C226.604145,36.0965839 226.368396,36.737821 225.896891,37.3036269 C225.425386,37.8694329 224.831299,38.1523316 224.114611,38.1523316 C223.322483,38.1523316 222.813265,37.9071527 222.586943,37.4167876 C222.586943,38.7747218 222.860412,39.7742973 223.407358,40.415544 C223.954303,41.0567908 224.831289,41.3774093 226.038342,41.3774093 Z M251.273161,45.7340933 C248.481851,45.7340933 246.275241,45.0174165 244.653264,43.5840415 C243.031287,42.1506664 242.220311,39.8874766 242.220311,36.7944041 C242.220311,34.2294172 242.748389,31.3815701 243.80456,28.2507772 C244.860731,25.1199843 246.558123,22.4135865 248.896788,20.1315026 C251.235452,17.8494186 254.177599,16.7083938 257.723316,16.7083938 C262.551527,16.7083938 264.965596,19.7259802 264.965596,25.7612435 L264.965596,25.8178238 C265.078757,25.8555442 265.286216,25.8744041 265.587979,25.8744041 C266.832752,25.8744041 268.266106,25.5443556 269.888083,24.8842487 C271.51006,24.2241418 272.981133,23.4225954 274.301347,22.4795855 L274.81057,24.0072539 C273.716678,25.1765862 272.292755,26.1667317 270.538756,26.9777202 C268.784758,27.7887087 266.870477,28.3639361 264.795855,28.7034197 C264.494092,32.1359757 263.720835,35.1347022 262.476062,37.6996891 C261.231289,40.264676 259.628196,42.2449671 257.666736,43.6406218 C255.705275,45.0362764 253.574105,45.7340933 251.273161,45.7340933 Z M253.536373,40.6418653 C254.441663,40.6418653 255.346938,40.1232176 256.252228,39.0859067 C257.157517,38.0485958 257.949634,36.6341022 258.628601,34.8423834 C259.307568,33.0506646 259.797926,31.0609436 260.099689,28.8731606 C259.081238,28.6468382 258.572021,27.8547218 258.572021,26.4967876 C258.572021,24.9502513 259.156678,23.9318159 260.32601,23.4414508 C260.25057,22.1966777 260.06197,21.3385516 259.760207,20.8670466 C259.458444,20.3955417 258.930366,20.1597927 258.175959,20.1597927 C256.931185,20.1597927 255.724151,21.0650687 254.554819,22.8756477 C253.385486,24.6862267 252.442491,26.8551169 251.725803,29.3823834 C251.009116,31.9096499 250.650777,34.1351199 250.650777,36.0588601 C250.650777,37.8694391 250.858236,39.0859036 251.273161,39.7082902 C251.688085,40.3306767 252.442482,40.6418653 253.536373,40.6418653 Z M302.252021,45.8472539 C299.951077,45.8472539 298.263114,45.2343066 297.188083,44.0083938 C296.113052,42.7824809 295.575544,41.2642578 295.575544,39.4536788 C295.575544,38.6615504 295.669844,37.7657045 295.858446,36.766114 C296.047048,35.7665235 296.245077,34.7952379 296.452539,33.852228 C296.660001,32.9092181 296.80145,32.3057008 296.876891,32.041658 C297.178654,30.7214442 297.461553,29.42011 297.725596,28.1376166 C297.989639,26.8551231 298.121658,25.8178278 298.121658,25.0256995 C298.121658,23.1019593 297.442701,22.1401036 296.084767,22.1401036 C295.104037,22.1401036 294.23648,22.6210315 293.482073,23.5829016 C292.727665,24.5447716 292.124147,25.798956 291.671503,27.3454922 L287.824041,45.507772 L279.676477,45.507772 L283.806839,25.9875648 C283.920001,25.53492 283.97658,25.0634221 283.97658,24.573057 C283.97658,22.9133596 283.410783,22.0835233 282.279171,22.0835233 C281.223,22.0835233 280.308294,22.5644511 279.535026,23.5263212 C278.761758,24.4881913 278.148811,25.7612356 277.696166,27.3454922 L273.848705,45.507772 L265.70114,45.507772 L271.698653,17.2176166 L279.846218,17.2176166 L279.223834,20.1597927 C281.147574,18.0097302 283.448484,16.934715 286.126632,16.934715 C289.446027,16.934715 291.388598,18.5566677 291.954404,21.8006218 C294.029026,18.5943881 296.650554,16.9912953 299.819067,16.9912953 C301.742808,16.9912953 303.270461,17.519373 304.402073,18.575544 C305.533684,19.6317151 306.099482,21.2348079 306.099482,23.3848705 C306.099482,24.4787619 305.967462,25.6952265 305.70342,27.0343005 C305.439377,28.3733746 305.062179,30.0047572 304.571813,31.9284974 C304.27005,33.0978297 303.996582,34.2388545 303.751399,35.3516062 C303.506216,36.4643579 303.383627,37.3413439 303.383627,37.9825907 C303.383627,38.7369986 303.553366,39.321656 303.89285,39.7365803 C304.232333,40.1515047 304.816991,40.3589637 305.646839,40.3589637 C306.778451,40.3589637 307.683727,39.9534756 308.362694,39.142487 C309.041661,38.3314985 309.720618,37.0773142 310.399585,35.3798964 L312.775959,35.3798964 C311.380304,39.5291399 309.767781,42.3109774 307.938342,43.7254922 C306.108903,45.1400071 304.213481,45.8472539 302.252021,45.8472539 Z M318.377409,45.8472539 C315.62382,45.8472539 313.47379,45.1211472 311.927254,43.6689119 C310.380718,42.2166767 309.607461,39.9440569 309.607461,36.8509845 C309.607461,34.2482771 310.116679,31.3815701 311.13513,28.2507772 C312.15358,25.1199843 313.813253,22.4135865 316.114197,20.1315026 C318.415141,17.8494186 321.338428,16.7083938 324.884145,16.7083938 C329.033389,16.7083938 331.107979,18.5189456 331.107979,22.1401036 C331.107979,24.2524458 330.504462,26.195017 329.297409,27.9678756 C328.090357,29.7407343 326.487264,31.1646578 324.488083,32.2396891 C322.488902,33.3147204 320.357732,33.9276676 318.094508,34.0785492 C318.019067,34.9083979 317.981347,35.4741954 317.981347,35.7759585 C317.981347,38.9067514 319.150662,40.4721244 321.489326,40.4721244 C322.545498,40.4721244 323.677092,40.1892256 324.884145,39.6234197 C326.091198,39.0576138 327.185073,38.340937 328.165803,37.4733679 C327.147352,43.0559865 323.884587,45.8472539 318.377409,45.8472539 Z M318.49057,31.3626943 C319.923945,31.3249739 321.272429,30.853476 322.536062,29.9481865 C323.799695,29.042897 324.818131,27.8830123 325.591399,26.4684974 C326.364667,25.0539826 326.751295,23.5734792 326.751295,22.026943 C326.751295,20.4804068 326.279797,19.7071503 325.336788,19.7071503 C324.016574,19.7071503 322.70581,20.9047549 321.404456,23.3 C320.103102,25.6952451 319.131817,28.382783 318.49057,31.3626943 Z" id="Awesome" fill="#114E4E"></path>
                        <path d="M145.750881,63.2174093 L153.898446,63.2174093 L152.993161,67.4609326 C154.87918,65.8389556 157.08579,65.0279793 159.613057,65.0279793 C161.725399,65.0279793 163.403932,65.7257961 164.648705,67.1214508 C165.893478,68.5171054 166.515855,70.7991551 166.515855,73.9676684 C166.515855,76.9475797 166.082077,79.9557361 165.214508,82.992228 C164.346939,86.0287198 162.875865,88.6125282 160.801244,90.7437306 C158.726622,92.8749329 155.991934,93.9405181 152.597098,93.9405181 C150.182993,93.9405181 148.5799,93.2615612 147.787772,91.9036269 L144.845596,105.709223 L136.301969,107.746114 L145.750881,63.2174093 Z M150.843109,89.0180311 C152.653688,89.0180311 154.153051,88.1693349 155.341244,86.4719171 C156.529436,84.7744993 157.396992,82.7470584 157.943938,80.3895337 C158.490884,78.0320089 158.764352,75.8348288 158.764352,73.7979275 C158.764352,70.6671346 157.821357,69.1017617 155.935337,69.1017617 C155.25637,69.1017617 154.567983,69.3469406 153.870155,69.8373057 C153.172328,70.3276708 152.559381,71.0066278 152.031295,71.8741969 L148.693057,87.7166839 C148.99482,88.584253 149.711497,89.0180311 150.843109,89.0180311 Z M171.777824,65.3108808 L179.925389,65.3108808 L179.189845,68.8188601 C180.472338,67.6872482 181.632223,66.8196921 182.669534,66.2161658 C183.706845,65.6126395 184.82901,65.3108808 186.036062,65.3108808 C187.243115,65.3108808 188.195541,65.725799 188.893368,66.5556477 C189.591195,67.3854964 189.940104,68.3850719 189.940104,69.5544041 C189.940104,70.6482956 189.581765,71.6101513 188.865078,72.44 C188.14839,73.2698487 187.148815,73.6847668 185.866321,73.6847668 C185.036473,73.6847668 184.480105,73.4867377 184.197202,73.0906736 C183.914299,72.6946094 183.69741,72.119382 183.546528,71.3649741 C183.433367,70.8746089 183.320208,70.5162706 183.207047,70.2899482 C183.093885,70.0636258 182.886426,69.9504663 182.584663,69.9504663 C181.792535,69.9504663 181.123008,70.1107756 180.576062,70.431399 C180.029116,70.7520223 179.32187,71.3083898 178.454301,72.1005181 L173.927876,93.6010363 L165.780311,93.6010363 L171.777824,65.3108808 Z M197.465285,93.8273575 C194.673976,93.8273575 192.467366,93.1106807 190.845389,91.6773057 C189.223412,90.2439307 188.412435,87.9807409 188.412435,84.8876684 C188.412435,82.3226815 188.940513,79.4748343 189.996684,76.3440415 C191.052855,73.2132486 192.750247,70.5068508 195.088912,68.2247668 C197.427576,65.9426829 200.369723,64.801658 203.91544,64.801658 C208.743651,64.801658 211.15772,67.8192444 211.15772,73.8545078 L211.15772,73.9110881 C211.270881,73.9488085 211.47834,73.9676684 211.780104,73.9676684 C213.024877,73.9676684 214.45823,73.6376199 216.080207,72.977513 C217.702184,72.317406 219.173258,71.5158596 220.493472,70.5728497 L221.002694,72.1005181 C219.908803,73.2698504 218.484879,74.2599959 216.730881,75.0709845 C214.976882,75.881973 213.062601,76.4572004 210.987979,76.7966839 C210.686216,80.22924 209.91296,83.2279664 208.668187,85.7929534 C207.423413,88.3579403 205.820321,90.3382314 203.85886,91.733886 C201.8974,93.1295407 199.766229,93.8273575 197.465285,93.8273575 Z M199.728497,88.7351295 C200.633787,88.7351295 201.539063,88.2164819 202.444352,87.179171 C203.349642,86.1418601 204.141758,84.7273665 204.820725,82.9356477 C205.499693,81.1439289 205.99005,79.1542078 206.291813,76.9664249 C205.273363,76.7401025 204.764145,75.9479861 204.764145,74.5900518 C204.764145,73.0435156 205.348802,72.0250802 206.518135,71.534715 C206.442694,70.289942 206.254095,69.4318158 205.952332,68.9603109 C205.650568,68.4888059 205.122491,68.253057 204.368083,68.253057 C203.12331,68.253057 201.916275,69.1583329 200.746943,70.9689119 C199.577611,72.7794909 198.634615,74.9483811 197.917927,77.4756477 C197.20124,80.0029142 196.842902,82.2283842 196.842902,84.1521244 C196.842902,85.9627034 197.050361,87.1791679 197.465285,87.8015544 C197.880209,88.4239409 198.634606,88.7351295 199.728497,88.7351295 Z M209.34715,107.746114 C207.272528,107.746114 205.584566,107.170887 204.283212,106.020415 C202.981859,104.869942 202.331192,103.332859 202.331192,101.409119 C202.331192,99.8248625 202.78383,98.5235284 203.689119,97.5050777 C204.594409,96.486627 205.707144,95.6756507 207.027358,95.0721244 C208.347571,94.468598 210.044964,93.8273609 212.119585,93.1483938 L218.4,63.3871503 C219.418451,58.7098212 221.115843,55.5130656 223.492228,53.7967876 C225.868613,52.0805096 228.584441,51.2223834 231.639793,51.2223834 C234.468822,51.2223834 236.864032,51.6938813 238.825492,52.6368912 C240.786953,53.5799011 241.767668,55.2772934 241.767668,57.7291192 C241.767668,59.3133758 241.34332,60.4732606 240.494611,61.2088083 C239.645902,61.944356 238.580317,62.3121244 237.297824,62.3121244 C236.317094,62.3121244 235.506117,62.0763754 234.86487,61.6048705 C234.223624,61.1333655 233.903005,60.350679 233.903005,59.2567876 C233.903005,58.5401 234.082174,57.8988629 234.440518,57.333057 C234.798862,56.7672511 235.26093,56.4843523 235.826736,56.4843523 C236.090779,56.4843523 236.241658,56.5032122 236.279378,56.5409326 C236.241658,55.7865247 235.949329,55.2207273 235.402383,54.8435233 C234.855438,54.4663194 234.110471,54.2777202 233.167461,54.2777202 C231.507764,54.2777202 230.17814,54.8812375 229.178549,56.0882902 C228.178959,57.2953428 227.509432,58.8229959 227.169948,60.6712953 L226.208083,65.3108808 L230.734508,65.3108808 L230.281865,67.5740933 L225.75544,67.5740933 L219.305285,98.1274611 C218.550877,101.673178 217.249543,104.162687 215.401244,105.596062 C213.552944,107.029437 211.534933,107.746114 209.34715,107.746114 Z M234.75171,93.9405181 C232.941131,93.9405181 231.479487,93.3747207 230.366736,92.2431088 C229.253984,91.1114969 228.697617,89.4141046 228.697617,87.1508808 C228.697617,86.2078709 228.848496,84.9819765 229.150259,83.4731606 L232.99772,65.3108808 L241.145285,65.3108808 L237.071503,84.5481865 C236.920621,85.1139925 236.845181,85.7175097 236.845181,86.3587565 C236.845181,87.1131644 237.024351,87.650672 237.382694,87.9712953 C237.741038,88.2919187 238.335125,88.452228 239.164974,88.452228 C240.258866,88.452228 241.277301,87.9901601 242.220311,87.0660104 C243.163321,86.1418607 243.842278,84.9442561 244.257202,83.4731606 L246.633575,83.4731606 C245.23792,87.5469634 243.446229,90.3099409 241.258446,91.7621762 C239.070663,93.2144114 236.901772,93.9405181 234.75171,93.9405181 Z M207.762902,102.710466 C208.404148,102.710466 209.035955,102.352128 209.658342,101.63544 C210.280729,100.918753 210.742796,99.8060179 211.04456,98.2972021 L211.723523,95.015544 C209.799783,95.6190704 208.27213,96.3828969 207.140518,97.3070466 C206.008906,98.2311963 205.443109,99.2779216 205.443109,100.447254 C205.443109,101.277103 205.707148,101.86176 206.235233,102.201244 C206.763319,102.540727 207.272536,102.710466 207.762902,102.710466 Z M249.858653,93.9405181 C248.048074,93.9405181 246.58643,93.3747207 245.473679,92.2431088 C244.360927,91.1114969 243.80456,89.4141046 243.80456,87.1508808 C243.80456,86.2078709 243.955439,84.9819765 244.257202,83.4731606 L250.311295,55.1264249 L258.685181,53.9948187 L252.178446,84.5481865 C252.027564,85.1139925 251.952124,85.7175097 251.952124,86.3587565 C251.952124,87.1131644 252.131294,87.650672 252.489637,87.9712953 C252.847981,88.2919187 253.442068,88.452228 254.271917,88.452228 C255.365809,88.452228 256.384244,87.9901601 257.327254,87.0660104 C258.270264,86.1418607 258.949221,84.9442561 259.364145,83.4731606 L261.740518,83.4731606 C260.344863,87.5469634 258.553172,90.3099409 256.365389,91.7621762 C254.177606,93.2144114 252.008715,93.9405181 249.858653,93.9405181 Z M267.341969,93.9405181 C264.58838,93.9405181 262.43835,93.2144114 260.891813,91.7621762 C259.345277,90.3099409 258.572021,88.0373212 258.572021,84.9442487 C258.572021,82.3415414 259.081238,79.4748343 260.099689,76.3440415 C261.11814,73.2132486 262.777812,70.5068508 265.078756,68.2247668 C267.379701,65.9426829 270.302987,64.801658 273.848705,64.801658 C277.997948,64.801658 280.072539,66.6122099 280.072539,70.2333679 C280.072539,72.34571 279.469022,74.2882813 278.261969,76.0611399 C277.054916,77.8339985 275.451823,79.2579221 273.452642,80.3329534 C271.453462,81.4079846 269.322291,82.0209319 267.059067,82.1718135 C266.983627,83.0016622 266.945907,83.5674596 266.945907,83.8692228 C266.945907,87.0000157 268.115221,88.5653886 270.453886,88.5653886 C271.510057,88.5653886 272.641652,88.2824899 273.848705,87.7166839 C275.055757,87.150878 276.149632,86.4342012 277.130363,85.5666321 C276.111912,91.1492507 272.849147,93.9405181 267.341969,93.9405181 Z M267.45513,79.4559585 C268.888505,79.4182382 270.236989,78.9467403 271.500622,78.0414508 C272.764255,77.1361613 273.78269,75.9762765 274.555959,74.5617617 C275.329227,73.1472468 275.715855,71.6667435 275.715855,70.1202073 C275.715855,68.573671 275.244357,67.8004145 274.301347,67.8004145 C272.981133,67.8004145 271.670369,68.9980191 270.369016,71.3932642 C269.067662,73.7885094 268.096376,76.4760473 267.45513,79.4559585 Z M282.16601,76.5703627 L293.482073,76.5703627 L292.520207,81.0402073 L281.147565,81.0402073 L282.16601,76.5703627 Z M304.571813,93.9405181 C301.780504,93.9405181 299.611614,93.2144114 298.065078,91.7621762 C296.518541,90.3099409 295.745285,88.0373212 295.745285,84.9442487 C295.745285,82.3415414 296.263933,79.4748343 297.301244,76.3440415 C298.338554,73.2132486 299.998227,70.5068508 302.280311,68.2247668 C304.562395,65.9426829 307.457392,64.801658 310.965389,64.801658 C313.228612,64.801658 314.841135,65.2920158 315.803005,66.2727461 C316.764875,67.2534764 317.245803,68.4982308 317.245803,70.0070466 C317.245803,71.3272605 316.962904,72.3456959 316.397098,73.0623834 C315.831293,73.7790709 315.114616,74.1374093 314.247047,74.1374093 C313.6058,74.1374093 312.945703,73.9110903 312.266736,73.4584456 C312.719381,72.2136725 312.945699,71.1009375 312.945699,70.1202073 C312.945699,69.4035197 312.81368,68.8377223 312.549637,68.4227979 C312.285595,68.0078736 311.889536,67.8004145 311.361451,67.8004145 C310.229839,67.8004145 309.098244,68.7245503 307.966632,70.5728497 C306.83502,72.4211491 305.910884,74.665479 305.194197,77.3059067 C304.477509,79.9463344 304.119171,82.3226837 304.119171,84.4350259 C304.119171,86.2833253 304.43979,87.5375097 305.081036,88.1976166 C305.722283,88.8577235 306.759578,89.187772 308.192953,89.187772 C310.229855,89.187772 311.974397,88.7162741 313.426632,87.7732642 C314.878867,86.8302544 316.47253,85.3969008 318.207668,83.4731606 L320.131399,83.4731606 C315.944435,90.4514339 310.757958,93.9405181 304.571813,93.9405181 Z M324.997306,93.9405181 C322.847243,93.9405181 321.055551,93.2049814 319.622176,91.733886 C318.188801,90.2627906 317.472124,87.9618809 317.472124,84.8310881 C317.472124,82.0397788 318.028492,79.107062 319.141244,76.0328497 C320.253995,72.9586375 321.913668,70.3559692 324.120311,68.2247668 C326.326954,66.0935645 328.957912,65.0279793 332.013264,65.0279793 C333.5598,65.0279793 334.710255,65.2920181 335.464663,65.8201036 C336.219071,66.3481892 336.596269,67.046006 336.596269,67.9135751 L336.596269,68.3096373 L337.218653,65.3108808 L345.366218,65.3108808 L341.292435,84.5481865 C341.141554,85.1139925 341.066114,85.7175097 341.066114,86.3587565 C341.066114,87.9807335 341.839371,88.7917098 343.385907,88.7917098 C344.442078,88.7917098 345.356784,88.3013521 346.130052,87.3206218 C346.90332,86.3398915 347.516267,85.0574172 347.968912,83.4731606 L350.345285,83.4731606 C348.94963,87.5469634 347.223948,90.3099409 345.168187,91.7621762 C343.112425,93.2144114 341.047264,93.9405181 338.972642,93.9405181 C337.388386,93.9405181 336.115342,93.4973101 335.153472,92.6108808 C334.191601,91.7244515 333.616374,90.4325473 333.427772,88.7351295 C332.333881,90.2816658 331.117416,91.5358501 329.778342,92.4977202 C328.439268,93.4595903 326.845605,93.9405181 324.997306,93.9405181 Z M328.675026,88.452228 C329.618036,88.452228 330.551602,88.00902 331.475751,87.1225907 C332.399901,86.2361614 333.031708,85.0196969 333.371192,83.4731606 L336.087047,70.6860104 C336.087047,70.1956452 335.898447,69.7147174 335.521244,69.2432124 C335.14404,68.7717075 334.559382,68.5359585 333.767254,68.5359585 C332.258438,68.5359585 330.900524,69.4129446 329.693472,71.166943 C328.486419,72.9209414 327.543423,75.0332519 326.864456,77.5039378 C326.185489,79.9746238 325.84601,82.1529439 325.84601,84.0389637 C325.84601,85.9249835 326.119479,87.1320181 326.666425,87.6601036 C327.213371,88.1881892 327.882898,88.452228 328.675026,88.452228 Z M351.816373,65.3108808 L359.963938,65.3108808 L359.228394,68.8188601 C360.510887,67.6872482 361.670772,66.8196921 362.708083,66.2161658 C363.745394,65.6126395 364.867559,65.3108808 366.074611,65.3108808 C367.281664,65.3108808 368.23409,65.725799 368.931917,66.5556477 C369.629744,67.3854964 369.978653,68.3850719 369.978653,69.5544041 C369.978653,70.6482956 369.620314,71.6101513 368.903627,72.44 C368.186939,73.2698487 367.187364,73.6847668 365.90487,73.6847668 C365.075022,73.6847668 364.518654,73.4867377 364.235751,73.0906736 C363.952848,72.6946094 363.735959,72.119382 363.585078,71.3649741 C363.471917,70.8746089 363.358757,70.5162706 363.245596,70.2899482 C363.132435,70.0636258 362.924976,69.9504663 362.623212,69.9504663 C361.831084,69.9504663 361.161557,70.1107756 360.614611,70.431399 C360.067666,70.7520223 359.360419,71.3083898 358.49285,72.1005181 L353.966425,93.6010363 L345.81886,93.6010363 L351.816373,65.3108808 Z M376.032746,93.9405181 C373.882684,93.9405181 372.090992,93.2049814 370.657617,91.733886 C369.224242,90.2627906 368.507565,87.9618809 368.507565,84.8310881 C368.507565,82.0397788 369.063932,79.107062 370.176684,76.0328497 C371.289436,72.9586375 372.949108,70.3559692 375.155751,68.2247668 C377.362394,66.0935645 379.993353,65.0279793 383.048705,65.0279793 C384.595241,65.0279793 385.745696,65.2920181 386.500104,65.8201036 C387.254512,66.3481892 387.63171,67.046006 387.63171,67.9135751 L387.63171,68.1398964 L390.404145,55.1264249 L398.778031,53.9948187 L392.271295,84.5481865 C392.120414,85.1139925 392.044974,85.7175097 392.044974,86.3587565 C392.044974,87.1131644 392.224143,87.650672 392.582487,87.9712953 C392.940831,88.2919187 393.534918,88.452228 394.364767,88.452228 C395.420938,88.452228 396.335644,87.99959 397.108912,87.0943005 C397.88218,86.189011 398.495127,84.9819765 398.947772,83.4731606 L401.324145,83.4731606 C399.023201,90.2251115 395.232358,93.6010363 389.951503,93.6010363 C388.404966,93.6010363 387.150782,93.1861181 386.188912,92.3562694 C385.227042,91.5264207 384.632954,90.3193862 384.406632,88.7351295 C383.425902,90.2439454 382.247157,91.4886998 380.870363,92.4694301 C379.493568,93.4501603 377.881046,93.9405181 376.032746,93.9405181 Z M379.710466,88.452228 C380.615756,88.452228 381.530462,88.0373098 382.454611,87.2074611 C383.378761,86.3776124 384.010568,85.2271576 384.350052,83.7560622 L384.350052,83.4731606 L387.122487,70.5162694 C386.783003,69.1960556 386.009747,68.5359585 384.802694,68.5359585 C383.293878,68.5359585 381.935965,69.4129446 380.728912,71.166943 C379.521859,72.9209414 378.578863,75.0332519 377.899896,77.5039378 C377.220929,79.9746238 376.881451,82.1529439 376.881451,84.0389637 C376.881451,85.9249835 377.15492,87.1320181 377.701865,87.6601036 C378.248811,88.1881892 378.918338,88.452228 379.710466,88.452228 Z M405.397927,93.9405181 C403.587348,93.9405181 402.059695,93.5916097 400.814922,92.8937824 C399.570149,92.1959551 398.646013,91.2906791 398.042487,90.1779275 C397.438961,89.0651758 397.137202,87.905291 397.137202,86.6982383 C397.137202,85.4534653 397.429531,84.3690202 398.014197,83.4448705 C398.598863,82.5207208 399.30611,81.8511938 400.135959,81.4362694 C401.607054,78.7958417 402.889528,76.1271637 403.98342,73.4301554 C405.077311,70.7331471 406.114606,67.8192903 407.095337,64.6884974 L415.469223,63.5568912 C415.657825,68.3851019 415.978443,73.6092983 416.431088,79.2296373 C416.61969,81.4928611 416.71399,83.1336737 416.71399,84.1521244 C416.71399,86.4530685 416.129332,88.33906 414.96,89.8101554 C413.790668,91.2812509 412.347884,92.3374061 410.631606,92.9786528 C408.915328,93.6198996 407.170786,93.9405181 405.397927,93.9405181 Z M403.587358,89.4706736 C404.983012,89.4706736 406.152327,89.0557554 407.095337,88.2259067 C408.038347,87.396058 408.509845,86.0570041 408.509845,84.2087047 C408.509845,83.0770928 408.396685,81.4928599 408.170363,79.4559585 C407.793159,75.1558334 407.54798,72.2702664 407.434819,70.799171 C406.529529,73.7790823 405.001876,77.3436062 402.851813,81.4928497 C403.719383,81.9454945 404.153161,82.6055915 404.153161,83.4731606 C404.153161,84.1898481 403.917412,84.8310853 403.445907,85.3968912 C402.974402,85.9626971 402.380314,86.2455959 401.663627,86.2455959 C400.871499,86.2455959 400.362281,86.000417 400.135959,85.5100518 C400.135959,86.8679861 400.409427,87.8675616 400.956373,88.5088083 C401.503319,89.150055 402.380305,89.4706736 403.587358,89.4706736 Z" id="profile-cards" fill="#114E4E"></path>
                    </g>
                </g>
            </g>
        </g>
    </g>
</svg>